<svg width="28" height="28" viewBox="0 0 28 28" fill="none" xmlns="http://www.w3.org/2000/svg">
<path d="M23.978 14.4585V26.9585H3.97797V14.4585M13.978 26.9585V8.2085M13.978 8.2085H8.35297C7.52416 8.2085 6.72931 7.87926 6.14326 7.2932C5.55721 6.70715 5.22797 5.9123 5.22797 5.0835C5.22797 4.25469 5.55721 3.45984 6.14326 2.87379C6.72931 2.28774 7.52416 1.9585 8.35297 1.9585C12.728 1.9585 13.978 8.2085 13.978 8.2085ZM13.978 8.2085H19.603C20.4318 8.2085 21.2266 7.87926 21.8127 7.2932C22.3987 6.70715 22.728 5.9123 22.728 5.0835C22.728 4.25469 22.3987 3.45984 21.8127 2.87379C21.2266 2.28774 20.4318 1.9585 19.603 1.9585C15.228 1.9585 13.978 8.2085 13.978 8.2085ZM1.47797 8.2085H26.478V14.4585H1.47797V8.2085Z" stroke="#2133D2" stroke-width="2" stroke-linecap="round" stroke-linejoin="round"/>
</svg>
