<svg width="24" height="24" viewBox="0 0 24 24" fill="none" xmlns="http://www.w3.org/2000/svg">
<path d="M7.64858 22.5571H15.8255M11.737 22.5571V16.0155M18.2786 10.2917C18.2786 7.70372 18.2745 3.41136 18.2724 2.11481C18.2724 1.89794 18.1863 1.68996 18.0329 1.53662C17.8796 1.38327 17.6716 1.29712 17.4547 1.29712L6.0178 1.31041C5.80137 1.31041 5.59378 1.3962 5.4405 1.549C5.28723 1.70179 5.20078 1.90912 5.20011 2.12554C5.20011 3.68835 5.19346 8.72686 5.19346 10.2917C5.19346 13.5768 9.43523 16.0155 11.735 16.0155C14.0347 16.0155 18.2786 13.5768 18.2786 10.2917ZM18.2786 10.2917C20.6524 10.2917 22.367 7.38993 22.367 4.56788V3.75019H18.2786M5.19551 3.75019H1.10706V4.56788C1.10706 7.38993 2.82165 10.2917 5.19551 10.2917V3.75019Z" stroke="#81858E" stroke-width="1.8" stroke-linecap="round" stroke-linejoin="round"/>
</svg>
