<svg width="23" height="23" viewBox="0 0 23 23" fill="none" xmlns="http://www.w3.org/2000/svg">
<path d="M2.42292 10.6742C1.7784 11.8321 1.46662 13.1456 1.52203 14.4697C1.57745 15.7937 1.99791 17.0766 2.73692 18.1765C2.85044 18.348 2.91432 18.4807 2.89467 18.5697C2.87501 18.6586 2.30842 21.61 2.30842 21.61C2.29479 21.6791 2.29996 21.7505 2.32338 21.8169C2.34681 21.8833 2.38763 21.9422 2.44159 21.9874C2.51358 22.0448 2.6031 22.0757 2.69515 22.0749C2.74434 22.075 2.79303 22.065 2.83815 22.0454L5.60036 20.9643C5.79046 20.8893 6.00254 20.8929 6.19005 20.9741C7.12077 21.3368 8.14978 21.5638 9.17928 21.5638C10.5608 21.5653 11.918 21.2009 13.113 20.5078M20.3367 15.0281C20.2875 14.8512 20.3957 14.6055 20.4989 14.4286C20.5304 14.3759 20.5648 14.3251 20.602 14.2762C21.4847 12.9646 21.9569 11.4198 21.9583 9.83883C21.9731 5.30805 18.1499 1.63232 13.4226 1.63232C9.29967 1.63232 5.85982 4.43826 5.05391 8.16313C4.93335 8.71522 4.87239 9.27865 4.87209 9.84374C4.87209 14.3794 8.54782 18.1534 13.2752 18.1534C14.027 18.1534 15.0393 17.9274 15.5946 17.7751C16.1499 17.6227 16.7003 17.4212 16.8428 17.3672C16.9889 17.3121 17.1437 17.2838 17.2998 17.2837C17.4701 17.283 17.6389 17.3164 17.7961 17.3819L20.5824 18.3697C20.6435 18.3955 20.7081 18.4121 20.774 18.4188C20.8783 18.4188 20.9783 18.3774 21.052 18.3037C21.1257 18.2299 21.1672 18.1299 21.1672 18.0257C21.1637 17.9807 21.1555 17.9362 21.1426 17.893L20.3367 15.0281Z" stroke="#81858E" stroke-width="1.8" stroke-miterlimit="10" stroke-linecap="round"/>
</svg>
