<svg width="22" height="24" viewBox="0 0 22 24" fill="none" xmlns="http://www.w3.org/2000/svg">
<path d="M15.2341 6.46303L16.1316 6.52957L16.1316 6.52951L15.2341 6.46303ZM6.23949 6.46303L5.34186 6.52831L5.34186 6.52838L6.23949 6.46303ZM0.9429 21.7232L1.8286 21.883L1.82861 21.8829L0.9429 21.7232ZM20.5312 21.7232L21.4169 21.5634L21.4169 21.5633L20.5312 21.7232ZM14.3365 6.39648C14.1612 8.76168 12.3915 10.4692 10.7368 10.4692V12.2692C13.5794 12.2692 15.9063 9.56829 16.1316 6.52957L14.3365 6.39648ZM10.7368 10.4692C9.0812 10.4692 7.3092 8.76125 7.13711 6.39767L5.34186 6.52838C5.56329 9.56974 7.89507 12.2692 10.7368 12.2692V10.4692ZM7.13712 6.39774C6.97041 4.10558 8.5537 2.45688 10.7368 2.45688V0.656885C7.50267 0.656885 5.09972 3.19885 5.34186 6.52831L7.13712 6.39774ZM10.7368 2.45688C12.9142 2.45688 14.5029 4.1507 14.3365 6.39654L16.1316 6.52951C16.3741 3.25595 13.9766 0.656885 10.7368 0.656885V2.45688ZM10.7368 13.7399C6.03506 13.7399 0.997585 16.3492 0.0571893 21.5634L1.82861 21.8829C2.55835 17.8368 6.54613 15.5399 10.7368 15.5399V13.7399ZM0.057197 21.5634C-0.0299113 22.0462 0.0542315 22.5656 0.343044 22.9876C0.645692 23.4298 1.1452 23.7168 1.74219 23.7168V21.9168C1.7383 21.9168 1.74139 21.9164 1.7498 21.9185C1.75828 21.9206 1.76925 21.9244 1.78118 21.9308C1.80652 21.9444 1.82183 21.9613 1.82844 21.9709C1.83415 21.9793 1.83041 21.9775 1.82719 21.9607C1.82403 21.9441 1.82238 21.9174 1.8286 21.883L0.057197 21.5634ZM1.74219 23.7168H19.7314V21.9168H1.74219V23.7168ZM19.7314 23.7168C20.3283 23.7168 20.828 23.43 21.1309 22.9878C21.4199 22.5657 21.504 22.0462 21.4169 21.5634L19.6455 21.883C19.6517 21.9174 19.6501 21.9441 19.6469 21.9606C19.6437 21.9774 19.6399 21.9792 19.6457 21.9708C19.6523 21.9611 19.6676 21.9442 19.6929 21.9307C19.7048 21.9243 19.7157 21.9205 19.7241 21.9185C19.7324 21.9164 19.7354 21.9168 19.7314 21.9168V23.7168ZM21.4169 21.5633C20.4759 16.3492 15.4385 13.7399 10.7368 13.7399V15.5399C14.9274 15.5399 18.9153 17.8368 19.6455 21.883L21.4169 21.5633Z" fill="#81858E"/>
</svg>
